<mxfile host="app.diagrams.net" modified="2023-10-06T03:08:42.960Z" agent="Mozilla/5.0 (Windows NT 10.0; Win64; x64) AppleWebKit/537.36 (KHTML, like Gecko) Chrome/117.0.0.0 Safari/537.36 Edg/117.0.2045.47" etag="zurznVetLu0hjsv9sVZr" version="22.0.3" type="github" pages="2">
  <diagram name="Secuencia" id="8AgH-L5KLS1Z7VCSSrDz">
    <mxGraphModel dx="3132" dy="1158" grid="1" gridSize="10" guides="1" tooltips="1" connect="1" arrows="1" fold="1" page="1" pageScale="1" pageWidth="827" pageHeight="1169" math="0" shadow="0">
      <root>
        <mxCell id="0" />
        <mxCell id="1" parent="0" />
        <mxCell id="p4ydb3gXFqHdxh-GW8dJ-11" value="" style="shape=umlLifeline;perimeter=lifelinePerimeter;whiteSpace=wrap;html=1;container=1;dropTarget=0;collapsible=0;recursiveResize=0;outlineConnect=0;portConstraint=eastwest;newEdgeStyle={&quot;edgeStyle&quot;:&quot;elbowEdgeStyle&quot;,&quot;elbow&quot;:&quot;vertical&quot;,&quot;curved&quot;:0,&quot;rounded&quot;:0};participant=umlActor;" parent="1" vertex="1">
          <mxGeometry x="130" y="50" width="25" height="410" as="geometry" />
        </mxCell>
        <mxCell id="lUzUKtXt2Yx9XOsX4QFW-9" value="" style="html=1;points=[[0,0,0,0,5],[0,1,0,0,-5],[1,0,0,0,5],[1,1,0,0,-5]];perimeter=orthogonalPerimeter;outlineConnect=0;targetShapes=umlLifeline;portConstraint=eastwest;newEdgeStyle={&quot;curved&quot;:0,&quot;rounded&quot;:0};" parent="p4ydb3gXFqHdxh-GW8dJ-11" vertex="1">
          <mxGeometry x="5" y="80" width="10" height="270" as="geometry" />
        </mxCell>
        <mxCell id="lUzUKtXt2Yx9XOsX4QFW-2" value="Ingresa datos de cuenta&amp;nbsp;" style="html=1;verticalAlign=bottom;endArrow=block;curved=0;rounded=0;" parent="1" target="lUzUKtXt2Yx9XOsX4QFW-14" edge="1">
          <mxGeometry width="80" relative="1" as="geometry">
            <mxPoint x="145.0000000000001" y="150" as="sourcePoint" />
            <mxPoint x="285" y="150" as="targetPoint" />
          </mxGeometry>
        </mxCell>
        <mxCell id="lUzUKtXt2Yx9XOsX4QFW-3" value="Envía datos" style="html=1;verticalAlign=bottom;endArrow=block;curved=0;rounded=0;" parent="1" edge="1">
          <mxGeometry width="80" relative="1" as="geometry">
            <mxPoint x="290" y="170" as="sourcePoint" />
            <mxPoint x="445" y="170" as="targetPoint" />
          </mxGeometry>
        </mxCell>
        <mxCell id="lUzUKtXt2Yx9XOsX4QFW-6" value="Verifica datos" style="html=1;verticalAlign=bottom;endArrow=block;curved=0;rounded=0;" parent="1" target="lUzUKtXt2Yx9XOsX4QFW-21" edge="1">
          <mxGeometry x="0.0042" width="80" relative="1" as="geometry">
            <mxPoint x="449.6666666666665" y="200" as="sourcePoint" />
            <mxPoint x="649.5" y="200" as="targetPoint" />
            <Array as="points">
              <mxPoint x="550" y="200" />
            </Array>
            <mxPoint as="offset" />
          </mxGeometry>
        </mxCell>
        <mxCell id="lUzUKtXt2Yx9XOsX4QFW-8" value="&amp;nbsp;Alternativas" style="shape=umlFrame;whiteSpace=wrap;html=1;pointerEvents=0;width=100;height=15;" parent="1" vertex="1">
          <mxGeometry x="20" y="210" width="660" height="200" as="geometry" />
        </mxCell>
        <mxCell id="lUzUKtXt2Yx9XOsX4QFW-11" value="" style="endArrow=none;dashed=1;html=1;rounded=0;entryX=1.008;entryY=0.495;entryDx=0;entryDy=0;entryPerimeter=0;exitX=0;exitY=0.495;exitDx=0;exitDy=0;exitPerimeter=0;" parent="1" source="lUzUKtXt2Yx9XOsX4QFW-8" target="lUzUKtXt2Yx9XOsX4QFW-8" edge="1">
          <mxGeometry width="50" height="50" relative="1" as="geometry">
            <mxPoint x="460" y="270" as="sourcePoint" />
            <mxPoint x="510" y="220" as="targetPoint" />
          </mxGeometry>
        </mxCell>
        <mxCell id="lUzUKtXt2Yx9XOsX4QFW-12" value="Usuario" style="text;html=1;strokeColor=none;fillColor=none;align=center;verticalAlign=middle;whiteSpace=wrap;rounded=0;" parent="1" vertex="1">
          <mxGeometry x="110" y="20" width="60" height="30" as="geometry" />
        </mxCell>
        <mxCell id="lUzUKtXt2Yx9XOsX4QFW-13" value="" style="shape=umlLifeline;perimeter=lifelinePerimeter;whiteSpace=wrap;html=1;container=1;dropTarget=0;collapsible=0;recursiveResize=0;outlineConnect=0;portConstraint=eastwest;newEdgeStyle={&quot;curved&quot;:0,&quot;rounded&quot;:0};participant=umlBoundary;" parent="1" vertex="1">
          <mxGeometry x="260" y="50" width="50" height="410" as="geometry" />
        </mxCell>
        <mxCell id="lUzUKtXt2Yx9XOsX4QFW-14" value="" style="html=1;points=[[0,0,0,0,5],[0,1,0,0,-5],[1,0,0,0,5],[1,1,0,0,-5]];perimeter=orthogonalPerimeter;outlineConnect=0;targetShapes=umlLifeline;portConstraint=eastwest;newEdgeStyle={&quot;curved&quot;:0,&quot;rounded&quot;:0};" parent="lUzUKtXt2Yx9XOsX4QFW-13" vertex="1">
          <mxGeometry x="20" y="100" width="10" height="240" as="geometry" />
        </mxCell>
        <mxCell id="lUzUKtXt2Yx9XOsX4QFW-15" value="Interfaz&amp;nbsp;" style="text;html=1;strokeColor=none;fillColor=none;align=center;verticalAlign=middle;whiteSpace=wrap;rounded=0;" parent="1" vertex="1">
          <mxGeometry x="255" y="20" width="60" height="30" as="geometry" />
        </mxCell>
        <mxCell id="lUzUKtXt2Yx9XOsX4QFW-16" value="" style="shape=umlLifeline;perimeter=lifelinePerimeter;whiteSpace=wrap;html=1;container=1;dropTarget=0;collapsible=0;recursiveResize=0;outlineConnect=0;portConstraint=eastwest;newEdgeStyle={&quot;curved&quot;:0,&quot;rounded&quot;:0};participant=umlControl;" parent="1" vertex="1">
          <mxGeometry x="430" y="50" width="40" height="410" as="geometry" />
        </mxCell>
        <mxCell id="lUzUKtXt2Yx9XOsX4QFW-20" value="" style="html=1;points=[[0,0,0,0,5],[0,1,0,0,-5],[1,0,0,0,5],[1,1,0,0,-5]];perimeter=orthogonalPerimeter;outlineConnect=0;targetShapes=umlLifeline;portConstraint=eastwest;newEdgeStyle={&quot;curved&quot;:0,&quot;rounded&quot;:0};" parent="lUzUKtXt2Yx9XOsX4QFW-16" vertex="1">
          <mxGeometry x="15" y="120" width="10" height="200" as="geometry" />
        </mxCell>
        <mxCell id="lUzUKtXt2Yx9XOsX4QFW-17" value="Controlador" style="text;html=1;strokeColor=none;fillColor=none;align=center;verticalAlign=middle;whiteSpace=wrap;rounded=0;" parent="1" vertex="1">
          <mxGeometry x="420" y="20" width="60" height="30" as="geometry" />
        </mxCell>
        <mxCell id="lUzUKtXt2Yx9XOsX4QFW-18" value="" style="shape=umlLifeline;perimeter=lifelinePerimeter;whiteSpace=wrap;html=1;container=1;dropTarget=0;collapsible=0;recursiveResize=0;outlineConnect=0;portConstraint=eastwest;newEdgeStyle={&quot;curved&quot;:0,&quot;rounded&quot;:0};participant=umlEntity;" parent="1" vertex="1">
          <mxGeometry x="630" y="50" width="40" height="410" as="geometry" />
        </mxCell>
        <mxCell id="lUzUKtXt2Yx9XOsX4QFW-21" value="" style="html=1;points=[[0,0,0,0,5],[0,1,0,0,-5],[1,0,0,0,5],[1,1,0,0,-5]];perimeter=orthogonalPerimeter;outlineConnect=0;targetShapes=umlLifeline;portConstraint=eastwest;newEdgeStyle={&quot;curved&quot;:0,&quot;rounded&quot;:0};" parent="lUzUKtXt2Yx9XOsX4QFW-18" vertex="1">
          <mxGeometry x="15" y="150" width="10" height="140" as="geometry" />
        </mxCell>
        <mxCell id="lUzUKtXt2Yx9XOsX4QFW-19" value="Base de datos" style="text;html=1;strokeColor=none;fillColor=none;align=center;verticalAlign=middle;whiteSpace=wrap;rounded=0;" parent="1" vertex="1">
          <mxGeometry x="620" y="20" width="60" height="30" as="geometry" />
        </mxCell>
        <mxCell id="lUzUKtXt2Yx9XOsX4QFW-22" value="Datos validos" style="text;html=1;strokeColor=none;fillColor=none;align=center;verticalAlign=middle;whiteSpace=wrap;rounded=0;" parent="1" vertex="1">
          <mxGeometry x="35" y="240" width="60" height="30" as="geometry" />
        </mxCell>
        <mxCell id="lUzUKtXt2Yx9XOsX4QFW-23" value="Else" style="text;html=1;strokeColor=none;fillColor=none;align=center;verticalAlign=middle;whiteSpace=wrap;rounded=0;" parent="1" vertex="1">
          <mxGeometry x="35" y="320" width="60" height="30" as="geometry" />
        </mxCell>
        <mxCell id="lUzUKtXt2Yx9XOsX4QFW-24" value="Muestra página del rol" style="html=1;verticalAlign=bottom;endArrow=open;dashed=1;endSize=8;curved=0;rounded=0;" parent="1" edge="1">
          <mxGeometry relative="1" as="geometry">
            <mxPoint x="280" y="274.58" as="sourcePoint" />
            <mxPoint x="145" y="274.58" as="targetPoint" />
          </mxGeometry>
        </mxCell>
        <mxCell id="lUzUKtXt2Yx9XOsX4QFW-25" value="Devuelve Rol" style="html=1;verticalAlign=bottom;endArrow=open;dashed=1;endSize=8;curved=0;rounded=0;" parent="1" edge="1">
          <mxGeometry relative="1" as="geometry">
            <mxPoint x="445" y="244.58" as="sourcePoint" />
            <mxPoint x="290" y="244.58" as="targetPoint" />
          </mxGeometry>
        </mxCell>
        <mxCell id="lUzUKtXt2Yx9XOsX4QFW-26" value="Datos validos" style="html=1;verticalAlign=bottom;endArrow=open;dashed=1;endSize=8;curved=0;rounded=0;" parent="1" edge="1">
          <mxGeometry relative="1" as="geometry">
            <mxPoint x="645" y="230" as="sourcePoint" />
            <mxPoint x="455" y="230" as="targetPoint" />
          </mxGeometry>
        </mxCell>
        <mxCell id="lUzUKtXt2Yx9XOsX4QFW-27" value="Muestra solicitud" style="html=1;verticalAlign=bottom;endArrow=open;dashed=1;endSize=8;curved=0;rounded=0;" parent="1" edge="1">
          <mxGeometry relative="1" as="geometry">
            <mxPoint x="280" y="390" as="sourcePoint" />
            <mxPoint x="145" y="390" as="targetPoint" />
            <mxPoint as="offset" />
          </mxGeometry>
        </mxCell>
        <mxCell id="lUzUKtXt2Yx9XOsX4QFW-28" value="Solicita datos correctos" style="html=1;verticalAlign=bottom;endArrow=open;dashed=1;endSize=8;curved=0;rounded=0;" parent="1" edge="1">
          <mxGeometry relative="1" as="geometry">
            <mxPoint x="449.5" y="370" as="sourcePoint" />
            <mxPoint x="290" y="370" as="targetPoint" />
          </mxGeometry>
        </mxCell>
        <mxCell id="lUzUKtXt2Yx9XOsX4QFW-29" value="Datos inválidos&amp;nbsp;" style="html=1;verticalAlign=bottom;endArrow=open;dashed=1;endSize=8;curved=0;rounded=0;" parent="1" edge="1">
          <mxGeometry relative="1" as="geometry">
            <mxPoint x="645" y="330" as="sourcePoint" />
            <mxPoint x="455" y="330" as="targetPoint" />
          </mxGeometry>
        </mxCell>
        <mxCell id="oNtT0CXuPI2pcW7gDsYd-2" value="" style="shape=umlLifeline;perimeter=lifelinePerimeter;whiteSpace=wrap;html=1;container=1;dropTarget=0;collapsible=0;recursiveResize=0;outlineConnect=0;portConstraint=eastwest;newEdgeStyle={&quot;curved&quot;:0,&quot;rounded&quot;:0};participant=umlActor;" parent="1" vertex="1">
          <mxGeometry x="100" y="630" width="20" height="850" as="geometry" />
        </mxCell>
        <mxCell id="oNtT0CXuPI2pcW7gDsYd-4" value="" style="html=1;points=[[0,0,0,0,5],[0,1,0,0,-5],[1,0,0,0,5],[1,1,0,0,-5]];perimeter=orthogonalPerimeter;outlineConnect=0;targetShapes=umlLifeline;portConstraint=eastwest;newEdgeStyle={&quot;curved&quot;:0,&quot;rounded&quot;:0};" parent="oNtT0CXuPI2pcW7gDsYd-2" vertex="1">
          <mxGeometry x="5" y="70" width="10" height="730" as="geometry" />
        </mxCell>
        <mxCell id="oNtT0CXuPI2pcW7gDsYd-3" value="Vendedor" style="text;html=1;strokeColor=none;fillColor=none;align=center;verticalAlign=middle;whiteSpace=wrap;rounded=0;" parent="1" vertex="1">
          <mxGeometry x="80" y="600" width="60" height="30" as="geometry" />
        </mxCell>
        <mxCell id="oNtT0CXuPI2pcW7gDsYd-9" value="" style="shape=umlLifeline;perimeter=lifelinePerimeter;whiteSpace=wrap;html=1;container=1;dropTarget=0;collapsible=0;recursiveResize=0;outlineConnect=0;portConstraint=eastwest;newEdgeStyle={&quot;curved&quot;:0,&quot;rounded&quot;:0};participant=umlBoundary;" parent="1" vertex="1">
          <mxGeometry x="240" y="630" width="50" height="840" as="geometry" />
        </mxCell>
        <mxCell id="oNtT0CXuPI2pcW7gDsYd-22" value="" style="html=1;points=[[0,0,0,0,5],[0,1,0,0,-5],[1,0,0,0,5],[1,1,0,0,-5]];perimeter=orthogonalPerimeter;outlineConnect=0;targetShapes=umlLifeline;portConstraint=eastwest;newEdgeStyle={&quot;curved&quot;:0,&quot;rounded&quot;:0};" parent="oNtT0CXuPI2pcW7gDsYd-9" vertex="1">
          <mxGeometry x="20" y="130" width="10" height="630" as="geometry" />
        </mxCell>
        <mxCell id="oNtT0CXuPI2pcW7gDsYd-10" value="Interfaz vendedor" style="text;html=1;strokeColor=none;fillColor=none;align=center;verticalAlign=middle;whiteSpace=wrap;rounded=0;" parent="1" vertex="1">
          <mxGeometry x="240" y="600" width="60" height="30" as="geometry" />
        </mxCell>
        <mxCell id="oNtT0CXuPI2pcW7gDsYd-12" value="Crear nuevo pedido" style="shape=umlFrame;whiteSpace=wrap;html=1;pointerEvents=0;width=130;height=30;" parent="1" vertex="1">
          <mxGeometry x="-60" y="570" width="960" height="840" as="geometry" />
        </mxCell>
        <mxCell id="oNtT0CXuPI2pcW7gDsYd-14" value="" style="shape=umlLifeline;perimeter=lifelinePerimeter;whiteSpace=wrap;html=1;container=1;dropTarget=0;collapsible=0;recursiveResize=0;outlineConnect=0;portConstraint=eastwest;newEdgeStyle={&quot;curved&quot;:0,&quot;rounded&quot;:0};participant=umlEntity;" parent="1" vertex="1">
          <mxGeometry x="690" y="630" width="40" height="840" as="geometry" />
        </mxCell>
        <mxCell id="oNtT0CXuPI2pcW7gDsYd-38" value="" style="html=1;points=[[0,0,0,0,5],[0,1,0,0,-5],[1,0,0,0,5],[1,1,0,0,-5]];perimeter=orthogonalPerimeter;outlineConnect=0;targetShapes=umlLifeline;portConstraint=eastwest;newEdgeStyle={&quot;curved&quot;:0,&quot;rounded&quot;:0};" parent="oNtT0CXuPI2pcW7gDsYd-14" vertex="1">
          <mxGeometry x="15" y="200" width="10" height="210" as="geometry" />
        </mxCell>
        <mxCell id="oNtT0CXuPI2pcW7gDsYd-53" value="" style="html=1;points=[[0,0,0,0,5],[0,1,0,0,-5],[1,0,0,0,5],[1,1,0,0,-5]];perimeter=orthogonalPerimeter;outlineConnect=0;targetShapes=umlLifeline;portConstraint=eastwest;newEdgeStyle={&quot;curved&quot;:0,&quot;rounded&quot;:0};" parent="oNtT0CXuPI2pcW7gDsYd-14" vertex="1">
          <mxGeometry x="15" y="650" width="10" height="40" as="geometry" />
        </mxCell>
        <mxCell id="oNtT0CXuPI2pcW7gDsYd-16" value="Base de datos" style="text;html=1;strokeColor=none;fillColor=none;align=center;verticalAlign=middle;whiteSpace=wrap;rounded=0;" parent="1" vertex="1">
          <mxGeometry x="680" y="600" width="60" height="30" as="geometry" />
        </mxCell>
        <mxCell id="oNtT0CXuPI2pcW7gDsYd-17" value="Controlador" style="text;html=1;strokeColor=none;fillColor=none;align=center;verticalAlign=middle;whiteSpace=wrap;rounded=0;" parent="1" vertex="1">
          <mxGeometry x="460" y="600" width="60" height="30" as="geometry" />
        </mxCell>
        <mxCell id="oNtT0CXuPI2pcW7gDsYd-18" value="" style="shape=umlLifeline;perimeter=lifelinePerimeter;whiteSpace=wrap;html=1;container=1;dropTarget=0;collapsible=0;recursiveResize=0;outlineConnect=0;portConstraint=eastwest;newEdgeStyle={&quot;curved&quot;:0,&quot;rounded&quot;:0};participant=umlControl;" parent="1" vertex="1">
          <mxGeometry x="470" y="620" width="40" height="850" as="geometry" />
        </mxCell>
        <mxCell id="oNtT0CXuPI2pcW7gDsYd-23" value="" style="html=1;points=[[0,0,0,0,5],[0,1,0,0,-5],[1,0,0,0,5],[1,1,0,0,-5]];perimeter=orthogonalPerimeter;outlineConnect=0;targetShapes=umlLifeline;portConstraint=eastwest;newEdgeStyle={&quot;curved&quot;:0,&quot;rounded&quot;:0};" parent="oNtT0CXuPI2pcW7gDsYd-18" vertex="1">
          <mxGeometry x="15" y="175" width="10" height="315" as="geometry" />
        </mxCell>
        <mxCell id="oNtT0CXuPI2pcW7gDsYd-51" value="" style="html=1;points=[[0,0,0,0,5],[0,1,0,0,-5],[1,0,0,0,5],[1,1,0,0,-5]];perimeter=orthogonalPerimeter;outlineConnect=0;targetShapes=umlLifeline;portConstraint=eastwest;newEdgeStyle={&quot;curved&quot;:0,&quot;rounded&quot;:0};" parent="oNtT0CXuPI2pcW7gDsYd-18" vertex="1">
          <mxGeometry x="15" y="640" width="10" height="90" as="geometry" />
        </mxCell>
        <mxCell id="oNtT0CXuPI2pcW7gDsYd-20" value="Ingreso de usuario" style="shape=umlFrame;whiteSpace=wrap;html=1;pointerEvents=0;width=100;height=30;" parent="1" vertex="1">
          <mxGeometry x="10" y="20" width="700" height="410" as="geometry" />
        </mxCell>
        <mxCell id="oNtT0CXuPI2pcW7gDsYd-27" value="Ingreso creación pedido&amp;nbsp;" style="html=1;verticalAlign=bottom;endArrow=block;curved=0;rounded=0;" parent="1" edge="1">
          <mxGeometry width="80" relative="1" as="geometry">
            <mxPoint x="115" y="710" as="sourcePoint" />
            <mxPoint x="260" y="710" as="targetPoint" />
          </mxGeometry>
        </mxCell>
        <mxCell id="oNtT0CXuPI2pcW7gDsYd-31" value="Seleccionar producto" style="html=1;verticalAlign=bottom;endArrow=block;curved=0;rounded=0;" parent="1" edge="1">
          <mxGeometry width="80" relative="1" as="geometry">
            <mxPoint x="115" y="760" as="sourcePoint" />
            <mxPoint x="260" y="760" as="targetPoint" />
          </mxGeometry>
        </mxCell>
        <mxCell id="oNtT0CXuPI2pcW7gDsYd-32" value="Verificar producto&amp;nbsp;" style="html=1;verticalAlign=bottom;endArrow=block;curved=0;rounded=0;" parent="1" edge="1">
          <mxGeometry width="80" relative="1" as="geometry">
            <mxPoint x="270" y="800" as="sourcePoint" />
            <mxPoint x="485" y="800" as="targetPoint" />
          </mxGeometry>
        </mxCell>
        <mxCell id="oNtT0CXuPI2pcW7gDsYd-33" value="Verificar stock" style="html=1;verticalAlign=bottom;endArrow=block;curved=0;rounded=0;" parent="1" target="oNtT0CXuPI2pcW7gDsYd-38" edge="1">
          <mxGeometry width="80" relative="1" as="geometry">
            <mxPoint x="495" y="839.41" as="sourcePoint" />
            <mxPoint x="709.5" y="839.41" as="targetPoint" />
          </mxGeometry>
        </mxCell>
        <mxCell id="oNtT0CXuPI2pcW7gDsYd-34" value="Verificar stock" style="shape=umlFrame;whiteSpace=wrap;html=1;pointerEvents=0;width=90;height=30;" parent="1" vertex="1">
          <mxGeometry x="-10" y="860" width="900" height="250" as="geometry" />
        </mxCell>
        <mxCell id="oNtT0CXuPI2pcW7gDsYd-35" value="" style="endArrow=none;dashed=1;html=1;rounded=0;exitX=-0.001;exitY=0.502;exitDx=0;exitDy=0;exitPerimeter=0;entryX=1.006;entryY=0.497;entryDx=0;entryDy=0;entryPerimeter=0;" parent="1" source="oNtT0CXuPI2pcW7gDsYd-34" target="oNtT0CXuPI2pcW7gDsYd-34" edge="1">
          <mxGeometry width="50" height="50" relative="1" as="geometry">
            <mxPoint x="510" y="980" as="sourcePoint" />
            <mxPoint x="560" y="930" as="targetPoint" />
          </mxGeometry>
        </mxCell>
        <mxCell id="oNtT0CXuPI2pcW7gDsYd-36" value="Existe stock" style="text;html=1;strokeColor=none;fillColor=none;align=center;verticalAlign=middle;whiteSpace=wrap;rounded=0;" parent="1" vertex="1">
          <mxGeometry y="900" width="60" height="30" as="geometry" />
        </mxCell>
        <mxCell id="oNtT0CXuPI2pcW7gDsYd-37" value="Else" style="text;html=1;strokeColor=none;fillColor=none;align=center;verticalAlign=middle;whiteSpace=wrap;rounded=0;" parent="1" vertex="1">
          <mxGeometry y="990" width="60" height="30" as="geometry" />
        </mxCell>
        <mxCell id="oNtT0CXuPI2pcW7gDsYd-39" value="No hay stock" style="html=1;verticalAlign=bottom;endArrow=open;dashed=1;endSize=8;curved=0;rounded=0;" parent="1" target="oNtT0CXuPI2pcW7gDsYd-23" edge="1">
          <mxGeometry relative="1" as="geometry">
            <mxPoint x="705" y="1009.37" as="sourcePoint" />
            <mxPoint x="500" y="1009" as="targetPoint" />
          </mxGeometry>
        </mxCell>
        <mxCell id="oNtT0CXuPI2pcW7gDsYd-40" value="Existe stock" style="html=1;verticalAlign=bottom;endArrow=open;dashed=1;endSize=8;curved=0;rounded=0;" parent="1" edge="1">
          <mxGeometry relative="1" as="geometry">
            <mxPoint x="705" y="894.5" as="sourcePoint" />
            <mxPoint x="495" y="894.5" as="targetPoint" />
          </mxGeometry>
        </mxCell>
        <mxCell id="oNtT0CXuPI2pcW7gDsYd-41" value="Acepta el ingreso" style="html=1;verticalAlign=bottom;endArrow=open;dashed=1;endSize=8;curved=0;rounded=0;" parent="1" edge="1">
          <mxGeometry relative="1" as="geometry">
            <mxPoint x="485" y="928.75" as="sourcePoint" />
            <mxPoint x="270" y="928.75" as="targetPoint" />
            <Array as="points">
              <mxPoint x="340" y="928.75" />
            </Array>
          </mxGeometry>
        </mxCell>
        <mxCell id="oNtT0CXuPI2pcW7gDsYd-42" value="Solicita nombre de cliente&amp;nbsp;" style="html=1;verticalAlign=bottom;endArrow=open;dashed=1;endSize=8;curved=0;rounded=0;" parent="1" edge="1">
          <mxGeometry relative="1" as="geometry">
            <mxPoint x="260" y="959.9999999999998" as="sourcePoint" />
            <mxPoint x="115" y="959.9999999999998" as="targetPoint" />
          </mxGeometry>
        </mxCell>
        <mxCell id="oNtT0CXuPI2pcW7gDsYd-44" value="Rechaza ingreso" style="html=1;verticalAlign=bottom;endArrow=open;dashed=1;endSize=8;curved=0;rounded=0;" parent="1" edge="1">
          <mxGeometry relative="1" as="geometry">
            <mxPoint x="485" y="1040" as="sourcePoint" />
            <mxPoint x="270" y="1040" as="targetPoint" />
          </mxGeometry>
        </mxCell>
        <mxCell id="oNtT0CXuPI2pcW7gDsYd-45" value="Ingresar otro producto" style="html=1;verticalAlign=bottom;endArrow=open;dashed=1;endSize=8;curved=0;rounded=0;" parent="1" edge="1">
          <mxGeometry relative="1" as="geometry">
            <mxPoint x="260" y="1080" as="sourcePoint" />
            <mxPoint x="115" y="1080" as="targetPoint" />
          </mxGeometry>
        </mxCell>
        <mxCell id="oNtT0CXuPI2pcW7gDsYd-47" value="Ingresa nombre cliente" style="html=1;verticalAlign=bottom;endArrow=block;curved=0;rounded=0;" parent="1" edge="1">
          <mxGeometry relative="1" as="geometry">
            <mxPoint x="115" y="1140" as="sourcePoint" />
            <mxPoint x="260" y="1140" as="targetPoint" />
          </mxGeometry>
        </mxCell>
        <mxCell id="oNtT0CXuPI2pcW7gDsYd-48" value="Solicita fecha de entrega&amp;nbsp;" style="html=1;verticalAlign=bottom;endArrow=open;dashed=1;endSize=8;curved=0;rounded=0;exitX=0;exitY=0.737;exitDx=0;exitDy=0;exitPerimeter=0;" parent="1" edge="1">
          <mxGeometry relative="1" as="geometry">
            <mxPoint x="115" y="1190" as="targetPoint" />
            <mxPoint x="260" y="1190" as="sourcePoint" />
          </mxGeometry>
        </mxCell>
        <mxCell id="oNtT0CXuPI2pcW7gDsYd-49" value="Ingresa nombre cliente" style="html=1;verticalAlign=bottom;endArrow=block;curved=0;rounded=0;" parent="1" edge="1">
          <mxGeometry relative="1" as="geometry">
            <mxPoint x="115" y="1230" as="sourcePoint" />
            <mxPoint x="260" y="1230" as="targetPoint" />
          </mxGeometry>
        </mxCell>
        <mxCell id="oNtT0CXuPI2pcW7gDsYd-50" value="Recopilación de datos" style="html=1;verticalAlign=bottom;endArrow=block;curved=0;rounded=0;" parent="1" source="oNtT0CXuPI2pcW7gDsYd-22" target="oNtT0CXuPI2pcW7gDsYd-51" edge="1">
          <mxGeometry width="80" relative="1" as="geometry">
            <mxPoint x="420" y="1210" as="sourcePoint" />
            <mxPoint x="440" y="1210" as="targetPoint" />
          </mxGeometry>
        </mxCell>
        <mxCell id="oNtT0CXuPI2pcW7gDsYd-52" value="Guardar pedido" style="html=1;verticalAlign=bottom;endArrow=block;curved=0;rounded=0;" parent="1" edge="1">
          <mxGeometry width="80" relative="1" as="geometry">
            <mxPoint x="495.5" y="1280" as="sourcePoint" />
            <mxPoint x="710" y="1280" as="targetPoint" />
          </mxGeometry>
        </mxCell>
        <mxCell id="oNtT0CXuPI2pcW7gDsYd-54" value="Solicitud confirmada" style="html=1;verticalAlign=bottom;endArrow=open;dashed=1;endSize=8;curved=0;rounded=0;" parent="1" edge="1">
          <mxGeometry relative="1" as="geometry">
            <mxPoint x="705" y="1320" as="sourcePoint" />
            <mxPoint x="495" y="1320" as="targetPoint" />
          </mxGeometry>
        </mxCell>
        <mxCell id="oNtT0CXuPI2pcW7gDsYd-55" value="Generar baucher" style="html=1;verticalAlign=bottom;endArrow=open;dashed=1;endSize=8;curved=0;rounded=0;" parent="1" edge="1">
          <mxGeometry relative="1" as="geometry">
            <mxPoint x="489.5" y="1350" as="sourcePoint" />
            <mxPoint x="270" y="1350" as="targetPoint" />
          </mxGeometry>
        </mxCell>
        <mxCell id="oNtT0CXuPI2pcW7gDsYd-56" value="Entrega de baucher" style="html=1;verticalAlign=bottom;endArrow=open;dashed=1;endSize=8;curved=0;rounded=0;" parent="1" target="oNtT0CXuPI2pcW7gDsYd-4" edge="1">
          <mxGeometry relative="1" as="geometry">
            <mxPoint x="260" y="1390" as="sourcePoint" />
            <mxPoint x="180" y="1390" as="targetPoint" />
          </mxGeometry>
        </mxCell>
        <mxCell id="oNtT0CXuPI2pcW7gDsYd-57" value="" style="shape=umlDestroy;whiteSpace=wrap;html=1;strokeWidth=3;targetShapes=umlLifeline;" parent="1" vertex="1">
          <mxGeometry x="95" y="1420" width="30" height="30" as="geometry" />
        </mxCell>
        <mxCell id="oNtT0CXuPI2pcW7gDsYd-61" value="Creación de cuentas&amp;nbsp;" style="shape=umlFrame;whiteSpace=wrap;html=1;pointerEvents=0;width=140;height=30;" parent="1" vertex="1">
          <mxGeometry x="1000" y="560" width="1070" height="1020" as="geometry" />
        </mxCell>
        <mxCell id="oNtT0CXuPI2pcW7gDsYd-62" value="" style="shape=umlLifeline;perimeter=lifelinePerimeter;whiteSpace=wrap;html=1;container=1;dropTarget=0;collapsible=0;recursiveResize=0;outlineConnect=0;portConstraint=eastwest;newEdgeStyle={&quot;curved&quot;:0,&quot;rounded&quot;:0};participant=umlActor;" parent="1" vertex="1">
          <mxGeometry x="1160" y="660" width="20" height="940" as="geometry" />
        </mxCell>
        <mxCell id="oNtT0CXuPI2pcW7gDsYd-71" value="" style="html=1;points=[[0,0,0,0,5],[0,1,0,0,-5],[1,0,0,0,5],[1,1,0,0,-5]];perimeter=orthogonalPerimeter;outlineConnect=0;targetShapes=umlLifeline;portConstraint=eastwest;newEdgeStyle={&quot;curved&quot;:0,&quot;rounded&quot;:0};" parent="oNtT0CXuPI2pcW7gDsYd-62" vertex="1">
          <mxGeometry x="5" y="70" width="10" height="770" as="geometry" />
        </mxCell>
        <mxCell id="oNtT0CXuPI2pcW7gDsYd-63" value="" style="shape=umlLifeline;perimeter=lifelinePerimeter;whiteSpace=wrap;html=1;container=1;dropTarget=0;collapsible=0;recursiveResize=0;outlineConnect=0;portConstraint=eastwest;newEdgeStyle={&quot;curved&quot;:0,&quot;rounded&quot;:0};participant=umlBoundary;" parent="1" vertex="1">
          <mxGeometry x="1390" y="660" width="50" height="920" as="geometry" />
        </mxCell>
        <mxCell id="oNtT0CXuPI2pcW7gDsYd-72" value="" style="html=1;points=[[0,0,0,0,5],[0,1,0,0,-5],[1,0,0,0,5],[1,1,0,0,-5]];perimeter=orthogonalPerimeter;outlineConnect=0;targetShapes=umlLifeline;portConstraint=eastwest;newEdgeStyle={&quot;curved&quot;:0,&quot;rounded&quot;:0};" parent="oNtT0CXuPI2pcW7gDsYd-63" vertex="1">
          <mxGeometry x="20" y="130" width="10" height="70" as="geometry" />
        </mxCell>
        <mxCell id="oNtT0CXuPI2pcW7gDsYd-86" value="" style="html=1;points=[[0,0,0,0,5],[0,1,0,0,-5],[1,0,0,0,5],[1,1,0,0,-5]];perimeter=orthogonalPerimeter;outlineConnect=0;targetShapes=umlLifeline;portConstraint=eastwest;newEdgeStyle={&quot;curved&quot;:0,&quot;rounded&quot;:0};" parent="oNtT0CXuPI2pcW7gDsYd-63" vertex="1">
          <mxGeometry x="20" y="240" width="10" height="650" as="geometry" />
        </mxCell>
        <mxCell id="oNtT0CXuPI2pcW7gDsYd-65" value="" style="shape=umlLifeline;perimeter=lifelinePerimeter;whiteSpace=wrap;html=1;container=1;dropTarget=0;collapsible=0;recursiveResize=0;outlineConnect=0;portConstraint=eastwest;newEdgeStyle={&quot;curved&quot;:0,&quot;rounded&quot;:0};participant=umlControl;" parent="1" vertex="1">
          <mxGeometry x="1630" y="660" width="40" height="920" as="geometry" />
        </mxCell>
        <mxCell id="oNtT0CXuPI2pcW7gDsYd-66" value="Administrador" style="text;strokeColor=none;align=center;fillColor=none;html=1;verticalAlign=middle;whiteSpace=wrap;rounded=0;" parent="1" vertex="1">
          <mxGeometry x="1140" y="630" width="60" height="30" as="geometry" />
        </mxCell>
        <mxCell id="oNtT0CXuPI2pcW7gDsYd-68" value="Interfaz&lt;br&gt;" style="text;html=1;align=center;verticalAlign=middle;resizable=0;points=[];autosize=1;strokeColor=none;fillColor=none;" parent="1" vertex="1">
          <mxGeometry x="1385" y="630" width="60" height="30" as="geometry" />
        </mxCell>
        <mxCell id="oNtT0CXuPI2pcW7gDsYd-69" value="Controlador" style="text;html=1;strokeColor=none;fillColor=none;align=center;verticalAlign=middle;whiteSpace=wrap;rounded=0;" parent="1" vertex="1">
          <mxGeometry x="1620" y="630" width="60" height="30" as="geometry" />
        </mxCell>
        <mxCell id="oNtT0CXuPI2pcW7gDsYd-70" value="Base de datos" style="text;html=1;strokeColor=none;fillColor=none;align=center;verticalAlign=middle;whiteSpace=wrap;rounded=0;" parent="1" vertex="1">
          <mxGeometry x="1850" y="630" width="60" height="30" as="geometry" />
        </mxCell>
        <mxCell id="oNtT0CXuPI2pcW7gDsYd-75" value="Ingreso crear cuenta" style="html=1;verticalAlign=bottom;endArrow=block;curved=0;rounded=0;" parent="1" edge="1">
          <mxGeometry width="80" relative="1" as="geometry">
            <mxPoint x="1175" y="740" as="sourcePoint" />
            <mxPoint x="1410" y="740" as="targetPoint" />
          </mxGeometry>
        </mxCell>
        <mxCell id="oNtT0CXuPI2pcW7gDsYd-76" value="Seleccionar tipo de cuenta" style="html=1;verticalAlign=bottom;endArrow=block;curved=0;rounded=0;entryX=0;entryY=0;entryDx=0;entryDy=5;entryPerimeter=0;" parent="1" source="oNtT0CXuPI2pcW7gDsYd-71" target="oNtT0CXuPI2pcW7gDsYd-72" edge="1">
          <mxGeometry width="80" relative="1" as="geometry">
            <mxPoint x="1180" y="790" as="sourcePoint" />
            <mxPoint x="1260" y="790" as="targetPoint" />
          </mxGeometry>
        </mxCell>
        <mxCell id="oNtT0CXuPI2pcW7gDsYd-82" value="Verifica&amp;nbsp;" style="html=1;align=left;spacingLeft=2;endArrow=block;rounded=0;edgeStyle=orthogonalEdgeStyle;curved=0;rounded=0;" parent="1" edge="1">
          <mxGeometry relative="1" as="geometry">
            <mxPoint x="1420" y="800" as="sourcePoint" />
            <Array as="points">
              <mxPoint x="1450" y="800" />
              <mxPoint x="1450" y="830" />
            </Array>
            <mxPoint x="1425" y="830" as="targetPoint" />
          </mxGeometry>
        </mxCell>
        <mxCell id="oNtT0CXuPI2pcW7gDsYd-84" value="Solicita correo y contraseña&amp;nbsp;" style="html=1;verticalAlign=bottom;endArrow=open;dashed=1;endSize=8;curved=0;rounded=0;exitX=0;exitY=1;exitDx=0;exitDy=-5;exitPerimeter=0;" parent="1" source="oNtT0CXuPI2pcW7gDsYd-72" target="oNtT0CXuPI2pcW7gDsYd-71" edge="1">
          <mxGeometry relative="1" as="geometry">
            <mxPoint x="1400" y="870" as="sourcePoint" />
            <mxPoint x="1320" y="870" as="targetPoint" />
          </mxGeometry>
        </mxCell>
        <mxCell id="oNtT0CXuPI2pcW7gDsYd-85" value="Ingreso de correo y contraseña&amp;nbsp;" style="html=1;verticalAlign=bottom;endArrow=block;curved=0;rounded=0;entryX=0;entryY=0;entryDx=0;entryDy=5;entryPerimeter=0;" parent="1" edge="1">
          <mxGeometry width="80" relative="1" as="geometry">
            <mxPoint x="1175" y="900" as="sourcePoint" />
            <mxPoint x="1410" y="900" as="targetPoint" />
          </mxGeometry>
        </mxCell>
        <mxCell id="oNtT0CXuPI2pcW7gDsYd-89" value="Envió de datos&amp;nbsp;" style="html=1;verticalAlign=bottom;endArrow=block;curved=0;rounded=0;entryX=0;entryY=0;entryDx=0;entryDy=5;entryPerimeter=0;" parent="1" source="oNtT0CXuPI2pcW7gDsYd-86" edge="1">
          <mxGeometry width="80" relative="1" as="geometry">
            <mxPoint x="1490" y="930" as="sourcePoint" />
            <mxPoint x="1645" y="935" as="targetPoint" />
          </mxGeometry>
        </mxCell>
        <mxCell id="oNtT0CXuPI2pcW7gDsYd-94" value="Verificar correo" style="shape=umlFrame;whiteSpace=wrap;html=1;pointerEvents=0;width=100;height=30;" parent="1" vertex="1">
          <mxGeometry x="1030" y="1040" width="980" height="420" as="geometry" />
        </mxCell>
        <mxCell id="oNtT0CXuPI2pcW7gDsYd-95" value="" style="endArrow=none;dashed=1;html=1;rounded=0;entryX=1.001;entryY=0.498;entryDx=0;entryDy=0;entryPerimeter=0;exitX=0.003;exitY=0.498;exitDx=0;exitDy=0;exitPerimeter=0;" parent="1" source="oNtT0CXuPI2pcW7gDsYd-94" target="oNtT0CXuPI2pcW7gDsYd-94" edge="1">
          <mxGeometry width="50" height="50" relative="1" as="geometry">
            <mxPoint x="1280" y="1270" as="sourcePoint" />
            <mxPoint x="1330" y="1220" as="targetPoint" />
          </mxGeometry>
        </mxCell>
        <mxCell id="oNtT0CXuPI2pcW7gDsYd-96" value="" style="shape=umlLifeline;perimeter=lifelinePerimeter;whiteSpace=wrap;html=1;container=1;dropTarget=0;collapsible=0;recursiveResize=0;outlineConnect=0;portConstraint=eastwest;newEdgeStyle={&quot;curved&quot;:0,&quot;rounded&quot;:0};participant=umlEntity;" parent="1" vertex="1">
          <mxGeometry x="1860" y="660" width="40" height="920" as="geometry" />
        </mxCell>
        <mxCell id="oNtT0CXuPI2pcW7gDsYd-74" value="" style="html=1;points=[[0,0,0,0,5],[0,1,0,0,-5],[1,0,0,0,5],[1,1,0,0,-5]];perimeter=orthogonalPerimeter;outlineConnect=0;targetShapes=umlLifeline;portConstraint=eastwest;newEdgeStyle={&quot;curved&quot;:0,&quot;rounded&quot;:0};" parent="oNtT0CXuPI2pcW7gDsYd-96" vertex="1">
          <mxGeometry x="15" y="360" width="10" height="530" as="geometry" />
        </mxCell>
        <mxCell id="oNtT0CXuPI2pcW7gDsYd-93" value="Verifica correo" style="html=1;verticalAlign=bottom;endArrow=block;curved=0;rounded=0;entryX=0;entryY=0;entryDx=0;entryDy=5;entryPerimeter=0;" parent="1" source="oNtT0CXuPI2pcW7gDsYd-65" target="oNtT0CXuPI2pcW7gDsYd-74" edge="1">
          <mxGeometry width="80" relative="1" as="geometry">
            <mxPoint x="1950" y="1055" as="sourcePoint" />
            <mxPoint x="2029" y="1080" as="targetPoint" />
          </mxGeometry>
        </mxCell>
        <mxCell id="oNtT0CXuPI2pcW7gDsYd-91" value="Verificar datos&amp;nbsp;" style="html=1;align=left;spacingLeft=2;endArrow=block;rounded=0;edgeStyle=orthogonalEdgeStyle;curved=0;rounded=0;" parent="1" edge="1">
          <mxGeometry relative="1" as="geometry">
            <mxPoint x="1650" y="950" as="sourcePoint" />
            <Array as="points">
              <mxPoint x="1680" y="980" />
            </Array>
            <mxPoint x="1655.0000000000005" y="980" as="targetPoint" />
          </mxGeometry>
        </mxCell>
        <mxCell id="oNtT0CXuPI2pcW7gDsYd-97" value="" style="html=1;points=[[0,0,0,0,5],[0,1,0,0,-5],[1,0,0,0,5],[1,1,0,0,-5]];perimeter=orthogonalPerimeter;outlineConnect=0;targetShapes=umlLifeline;portConstraint=eastwest;newEdgeStyle={&quot;curved&quot;:0,&quot;rounded&quot;:0};" parent="1" vertex="1">
          <mxGeometry x="1645" y="935" width="10" height="615" as="geometry" />
        </mxCell>
        <mxCell id="oNtT0CXuPI2pcW7gDsYd-98" value="Existe correo" style="text;html=1;align=center;verticalAlign=middle;resizable=0;points=[];autosize=1;strokeColor=none;fillColor=none;" parent="1" vertex="1">
          <mxGeometry x="1055" y="1088" width="90" height="30" as="geometry" />
        </mxCell>
        <mxCell id="oNtT0CXuPI2pcW7gDsYd-99" value="Else" style="text;html=1;align=center;verticalAlign=middle;resizable=0;points=[];autosize=1;strokeColor=none;fillColor=none;" parent="1" vertex="1">
          <mxGeometry x="1055" y="1260" width="50" height="30" as="geometry" />
        </mxCell>
        <mxCell id="oNtT0CXuPI2pcW7gDsYd-101" value="Correo existe&amp;nbsp;" style="html=1;verticalAlign=bottom;endArrow=open;dashed=1;endSize=8;curved=0;rounded=0;" parent="1" edge="1">
          <mxGeometry relative="1" as="geometry">
            <mxPoint x="1875" y="1169" as="sourcePoint" />
            <mxPoint x="1655" y="1169" as="targetPoint" />
          </mxGeometry>
        </mxCell>
        <mxCell id="oNtT0CXuPI2pcW7gDsYd-103" value="Solicita correo nuevo" style="html=1;verticalAlign=bottom;endArrow=open;dashed=1;endSize=8;curved=0;rounded=0;" parent="1" edge="1">
          <mxGeometry relative="1" as="geometry">
            <mxPoint x="1410" y="1230" as="sourcePoint" />
            <mxPoint x="1175" y="1230" as="targetPoint" />
          </mxGeometry>
        </mxCell>
        <mxCell id="oNtT0CXuPI2pcW7gDsYd-104" value="Deniega creación&amp;nbsp;" style="html=1;verticalAlign=bottom;endArrow=open;dashed=1;endSize=8;curved=0;rounded=0;" parent="1" edge="1">
          <mxGeometry relative="1" as="geometry">
            <mxPoint x="1645" y="1200" as="sourcePoint" />
            <mxPoint x="1420" y="1200" as="targetPoint" />
          </mxGeometry>
        </mxCell>
        <mxCell id="oNtT0CXuPI2pcW7gDsYd-105" value="Datos guardados" style="html=1;verticalAlign=bottom;endArrow=open;dashed=1;endSize=8;curved=0;rounded=0;" parent="1" edge="1">
          <mxGeometry relative="1" as="geometry">
            <mxPoint x="1875" y="1340" as="sourcePoint" />
            <mxPoint x="1655" y="1340" as="targetPoint" />
          </mxGeometry>
        </mxCell>
        <mxCell id="oNtT0CXuPI2pcW7gDsYd-106" value="Usuario creado" style="html=1;verticalAlign=bottom;endArrow=open;dashed=1;endSize=8;curved=0;rounded=0;" parent="1" edge="1">
          <mxGeometry relative="1" as="geometry">
            <mxPoint x="1645" y="1390" as="sourcePoint" />
            <mxPoint x="1420" y="1390" as="targetPoint" />
          </mxGeometry>
        </mxCell>
        <mxCell id="oNtT0CXuPI2pcW7gDsYd-109" value="Verifica correo" style="html=1;align=left;spacingLeft=2;endArrow=block;rounded=0;edgeStyle=orthogonalEdgeStyle;curved=0;rounded=0;" parent="1" edge="1">
          <mxGeometry relative="1" as="geometry">
            <mxPoint x="1879.96" y="1058" as="sourcePoint" />
            <Array as="points">
              <mxPoint x="1909.96" y="1088" />
            </Array>
            <mxPoint x="1884.9600000000005" y="1088" as="targetPoint" />
          </mxGeometry>
        </mxCell>
        <mxCell id="oNtT0CXuPI2pcW7gDsYd-110" value="Verifica correo" style="html=1;align=left;spacingLeft=2;endArrow=block;rounded=0;edgeStyle=orthogonalEdgeStyle;curved=0;rounded=0;" parent="1" edge="1">
          <mxGeometry relative="1" as="geometry">
            <mxPoint x="1879.96" y="1290.08" as="sourcePoint" />
            <Array as="points">
              <mxPoint x="1909.96" y="1320.08" />
            </Array>
            <mxPoint x="1884.9600000000005" y="1320.08" as="targetPoint" />
          </mxGeometry>
        </mxCell>
        <mxCell id="oNtT0CXuPI2pcW7gDsYd-112" value="Solicitud exitosa&amp;nbsp; &amp;nbsp;" style="html=1;verticalAlign=bottom;endArrow=open;dashed=1;endSize=8;curved=0;rounded=0;" parent="1" edge="1">
          <mxGeometry relative="1" as="geometry">
            <mxPoint x="1410" y="1434.7" as="sourcePoint" />
            <mxPoint x="1175" y="1434.7" as="targetPoint" />
          </mxGeometry>
        </mxCell>
        <mxCell id="oNtT0CXuPI2pcW7gDsYd-113" value="" style="shape=umlDestroy;whiteSpace=wrap;html=1;strokeWidth=3;targetShapes=umlLifeline;" parent="1" vertex="1">
          <mxGeometry x="1155" y="1480" width="30" height="30" as="geometry" />
        </mxCell>
        <mxCell id="oNtT0CXuPI2pcW7gDsYd-115" value="" style="shape=umlLifeline;perimeter=lifelinePerimeter;whiteSpace=wrap;html=1;container=1;dropTarget=0;collapsible=0;recursiveResize=0;outlineConnect=0;portConstraint=eastwest;newEdgeStyle={&quot;curved&quot;:0,&quot;rounded&quot;:0};participant=umlActor;size=60;" parent="1" vertex="1">
          <mxGeometry x="2499" y="600" width="35" height="1140" as="geometry" />
        </mxCell>
        <mxCell id="oNtT0CXuPI2pcW7gDsYd-119" value="" style="html=1;points=[[0,0,0,0,5],[0,1,0,0,-5],[1,0,0,0,5],[1,1,0,0,-5]];perimeter=orthogonalPerimeter;outlineConnect=0;targetShapes=umlLifeline;portConstraint=eastwest;newEdgeStyle={&quot;curved&quot;:0,&quot;rounded&quot;:0};" parent="oNtT0CXuPI2pcW7gDsYd-115" vertex="1">
          <mxGeometry x="12.5" y="80" width="10" height="1000" as="geometry" />
        </mxCell>
        <mxCell id="oNtT0CXuPI2pcW7gDsYd-156" value="" style="shape=umlDestroy;whiteSpace=wrap;html=1;strokeWidth=3;targetShapes=umlLifeline;" parent="oNtT0CXuPI2pcW7gDsYd-115" vertex="1">
          <mxGeometry x="2.5" y="1110" width="30" height="30" as="geometry" />
        </mxCell>
        <mxCell id="oNtT0CXuPI2pcW7gDsYd-116" value="" style="shape=umlLifeline;perimeter=lifelinePerimeter;whiteSpace=wrap;html=1;container=1;dropTarget=0;collapsible=0;recursiveResize=0;outlineConnect=0;portConstraint=eastwest;newEdgeStyle={&quot;curved&quot;:0,&quot;rounded&quot;:0};participant=umlBoundary;" parent="1" vertex="1">
          <mxGeometry x="2729" y="600" width="50" height="1120" as="geometry" />
        </mxCell>
        <mxCell id="oNtT0CXuPI2pcW7gDsYd-120" value="" style="html=1;points=[[0,0,0,0,5],[0,1,0,0,-5],[1,0,0,0,5],[1,1,0,0,-5]];perimeter=orthogonalPerimeter;outlineConnect=0;targetShapes=umlLifeline;portConstraint=eastwest;newEdgeStyle={&quot;curved&quot;:0,&quot;rounded&quot;:0};" parent="oNtT0CXuPI2pcW7gDsYd-116" vertex="1">
          <mxGeometry x="20" y="140" width="10" height="940" as="geometry" />
        </mxCell>
        <mxCell id="oNtT0CXuPI2pcW7gDsYd-117" value="" style="shape=umlLifeline;perimeter=lifelinePerimeter;whiteSpace=wrap;html=1;container=1;dropTarget=0;collapsible=0;recursiveResize=0;outlineConnect=0;portConstraint=eastwest;newEdgeStyle={&quot;curved&quot;:0,&quot;rounded&quot;:0};participant=umlControl;" parent="1" vertex="1">
          <mxGeometry x="3009" y="600" width="40" height="1120" as="geometry" />
        </mxCell>
        <mxCell id="oNtT0CXuPI2pcW7gDsYd-121" value="" style="html=1;points=[[0,0,0,0,5],[0,1,0,0,-5],[1,0,0,0,5],[1,1,0,0,-5]];perimeter=orthogonalPerimeter;outlineConnect=0;targetShapes=umlLifeline;portConstraint=eastwest;newEdgeStyle={&quot;curved&quot;:0,&quot;rounded&quot;:0};" parent="oNtT0CXuPI2pcW7gDsYd-117" vertex="1">
          <mxGeometry x="15" y="180" width="10" height="900" as="geometry" />
        </mxCell>
        <mxCell id="oNtT0CXuPI2pcW7gDsYd-118" value="" style="shape=umlLifeline;perimeter=lifelinePerimeter;whiteSpace=wrap;html=1;container=1;dropTarget=0;collapsible=0;recursiveResize=0;outlineConnect=0;portConstraint=eastwest;newEdgeStyle={&quot;curved&quot;:0,&quot;rounded&quot;:0};participant=umlEntity;" parent="1" vertex="1">
          <mxGeometry x="3258" y="599" width="40" height="1120" as="geometry" />
        </mxCell>
        <mxCell id="oNtT0CXuPI2pcW7gDsYd-122" value="" style="html=1;points=[[0,0,0,0,5],[0,1,0,0,-5],[1,0,0,0,5],[1,1,0,0,-5]];perimeter=orthogonalPerimeter;outlineConnect=0;targetShapes=umlLifeline;portConstraint=eastwest;newEdgeStyle={&quot;curved&quot;:0,&quot;rounded&quot;:0};" parent="oNtT0CXuPI2pcW7gDsYd-118" vertex="1">
          <mxGeometry x="15" y="220" width="10" height="390" as="geometry" />
        </mxCell>
        <mxCell id="oNtT0CXuPI2pcW7gDsYd-151" value="" style="html=1;points=[[0,0,0,0,5],[0,1,0,0,-5],[1,0,0,0,5],[1,1,0,0,-5]];perimeter=orthogonalPerimeter;outlineConnect=0;targetShapes=umlLifeline;portConstraint=eastwest;newEdgeStyle={&quot;curved&quot;:0,&quot;rounded&quot;:0};" parent="oNtT0CXuPI2pcW7gDsYd-118" vertex="1">
          <mxGeometry x="15" y="910" width="10" height="80" as="geometry" />
        </mxCell>
        <mxCell id="oNtT0CXuPI2pcW7gDsYd-123" value="Ingreso realizar pedido" style="html=1;verticalAlign=bottom;endArrow=block;curved=0;rounded=0;" parent="1" source="oNtT0CXuPI2pcW7gDsYd-119" edge="1">
          <mxGeometry width="80" relative="1" as="geometry">
            <mxPoint x="2508.25" y="689.9999999999998" as="sourcePoint" />
            <mxPoint x="2753.5" y="689.9999999999998" as="targetPoint" />
          </mxGeometry>
        </mxCell>
        <mxCell id="oNtT0CXuPI2pcW7gDsYd-124" value="Seleccionar productos&amp;nbsp;" style="html=1;verticalAlign=bottom;endArrow=block;curved=0;rounded=0;entryX=0;entryY=0;entryDx=0;entryDy=5;entryPerimeter=0;" parent="1" source="oNtT0CXuPI2pcW7gDsYd-119" target="oNtT0CXuPI2pcW7gDsYd-120" edge="1">
          <mxGeometry width="80" relative="1" as="geometry">
            <mxPoint x="2519" y="750" as="sourcePoint" />
            <mxPoint x="2599" y="750" as="targetPoint" />
          </mxGeometry>
        </mxCell>
        <mxCell id="oNtT0CXuPI2pcW7gDsYd-125" value="Verifica productos" style="html=1;verticalAlign=bottom;endArrow=block;curved=0;rounded=0;" parent="1" target="oNtT0CXuPI2pcW7gDsYd-117" edge="1">
          <mxGeometry width="80" relative="1" as="geometry">
            <mxPoint x="2759" y="780" as="sourcePoint" />
            <mxPoint x="2839" y="780" as="targetPoint" />
          </mxGeometry>
        </mxCell>
        <mxCell id="oNtT0CXuPI2pcW7gDsYd-126" value="Verifica stock" style="html=1;verticalAlign=bottom;endArrow=block;curved=0;rounded=0;" parent="1" source="oNtT0CXuPI2pcW7gDsYd-121" target="oNtT0CXuPI2pcW7gDsYd-122" edge="1">
          <mxGeometry width="80" relative="1" as="geometry">
            <mxPoint x="3028.0714285714284" y="834.29" as="sourcePoint" />
            <mxPoint x="3268.499999999999" y="834.29" as="targetPoint" />
            <Array as="points">
              <mxPoint x="3219" y="820" />
            </Array>
          </mxGeometry>
        </mxCell>
        <mxCell id="oNtT0CXuPI2pcW7gDsYd-127" value="frame" style="shape=umlFrame;whiteSpace=wrap;html=1;pointerEvents=0;" parent="1" vertex="1">
          <mxGeometry x="2349" y="850" width="1020" height="370" as="geometry" />
        </mxCell>
        <mxCell id="oNtT0CXuPI2pcW7gDsYd-128" value="" style="endArrow=none;dashed=1;html=1;rounded=0;exitX=-0.002;exitY=0.496;exitDx=0;exitDy=0;exitPerimeter=0;entryX=1.004;entryY=0.502;entryDx=0;entryDy=0;entryPerimeter=0;" parent="1" source="oNtT0CXuPI2pcW7gDsYd-127" target="oNtT0CXuPI2pcW7gDsYd-127" edge="1">
          <mxGeometry width="50" height="50" relative="1" as="geometry">
            <mxPoint x="2699" y="1220" as="sourcePoint" />
            <mxPoint x="2749" y="1170" as="targetPoint" />
          </mxGeometry>
        </mxCell>
        <mxCell id="oNtT0CXuPI2pcW7gDsYd-129" value="Sin stock" style="html=1;verticalAlign=bottom;endArrow=open;dashed=1;endSize=8;curved=0;rounded=0;" parent="1" edge="1">
          <mxGeometry relative="1" as="geometry">
            <mxPoint x="3264.000000000001" y="938" as="sourcePoint" />
            <mxPoint x="3034" y="938" as="targetPoint" />
          </mxGeometry>
        </mxCell>
        <mxCell id="oNtT0CXuPI2pcW7gDsYd-130" value="Solicitud rechazada&amp;nbsp;" style="html=1;verticalAlign=bottom;endArrow=open;dashed=1;endSize=8;curved=0;rounded=0;" parent="1" edge="1">
          <mxGeometry relative="1" as="geometry">
            <mxPoint x="3024" y="980" as="sourcePoint" />
            <mxPoint x="2759" y="980" as="targetPoint" />
          </mxGeometry>
        </mxCell>
        <mxCell id="oNtT0CXuPI2pcW7gDsYd-131" value="Productos sin stock&amp;nbsp;" style="html=1;verticalAlign=bottom;endArrow=open;dashed=1;endSize=8;curved=0;rounded=0;" parent="1" edge="1">
          <mxGeometry relative="1" as="geometry">
            <mxPoint x="2754" y="1020" as="sourcePoint" />
            <mxPoint x="2519" y="1020" as="targetPoint" />
          </mxGeometry>
        </mxCell>
        <mxCell id="oNtT0CXuPI2pcW7gDsYd-132" value="Con stock" style="html=1;verticalAlign=bottom;endArrow=open;dashed=1;endSize=8;curved=0;rounded=0;" parent="1" edge="1">
          <mxGeometry relative="1" as="geometry">
            <mxPoint x="3264" y="1130" as="sourcePoint" />
            <mxPoint x="3034" y="1130" as="targetPoint" />
          </mxGeometry>
        </mxCell>
        <mxCell id="oNtT0CXuPI2pcW7gDsYd-133" value="Solicitud aceptada" style="html=1;verticalAlign=bottom;endArrow=open;dashed=1;endSize=8;curved=0;rounded=0;" parent="1" edge="1">
          <mxGeometry relative="1" as="geometry">
            <mxPoint x="3027" y="1164.6400000000003" as="sourcePoint" />
            <mxPoint x="2762" y="1164.6400000000003" as="targetPoint" />
          </mxGeometry>
        </mxCell>
        <mxCell id="oNtT0CXuPI2pcW7gDsYd-135" value="No hay stock" style="text;html=1;align=center;verticalAlign=middle;resizable=0;points=[];autosize=1;strokeColor=none;fillColor=none;" parent="1" vertex="1">
          <mxGeometry x="2384" y="938" width="90" height="30" as="geometry" />
        </mxCell>
        <mxCell id="oNtT0CXuPI2pcW7gDsYd-136" value="Else" style="text;html=1;align=center;verticalAlign=middle;resizable=0;points=[];autosize=1;strokeColor=none;fillColor=none;" parent="1" vertex="1">
          <mxGeometry x="2404" y="1130" width="50" height="30" as="geometry" />
        </mxCell>
        <mxCell id="oNtT0CXuPI2pcW7gDsYd-138" value="Verificar stock" style="html=1;align=left;spacingLeft=2;endArrow=block;rounded=0;edgeStyle=orthogonalEdgeStyle;curved=0;rounded=0;" parent="1" edge="1">
          <mxGeometry relative="1" as="geometry">
            <mxPoint x="3269" y="870" as="sourcePoint" />
            <Array as="points">
              <mxPoint x="3299" y="900" />
            </Array>
            <mxPoint x="3274" y="899.9999999999998" as="targetPoint" />
          </mxGeometry>
        </mxCell>
        <mxCell id="oNtT0CXuPI2pcW7gDsYd-139" value="Verificar stock" style="html=1;align=left;spacingLeft=2;endArrow=block;rounded=0;edgeStyle=orthogonalEdgeStyle;curved=0;rounded=0;" parent="1" edge="1">
          <mxGeometry relative="1" as="geometry">
            <mxPoint x="3269" y="1070" as="sourcePoint" />
            <Array as="points">
              <mxPoint x="3299" y="1100" />
            </Array>
            <mxPoint x="3274" y="1099.9999999999998" as="targetPoint" />
          </mxGeometry>
        </mxCell>
        <mxCell id="oNtT0CXuPI2pcW7gDsYd-140" value="Confirmacion del pedido&amp;nbsp;" style="html=1;verticalAlign=bottom;endArrow=open;dashed=1;endSize=8;curved=0;rounded=0;" parent="1" edge="1">
          <mxGeometry relative="1" as="geometry">
            <mxPoint x="2749" y="1200" as="sourcePoint" />
            <mxPoint x="2514" y="1200" as="targetPoint" />
          </mxGeometry>
        </mxCell>
        <mxCell id="oNtT0CXuPI2pcW7gDsYd-141" value="Solicitud de entrega" style="html=1;verticalAlign=bottom;endArrow=block;curved=0;rounded=0;" parent="1" source="oNtT0CXuPI2pcW7gDsYd-119" edge="1">
          <mxGeometry x="-0.0213" width="80" relative="1" as="geometry">
            <mxPoint x="2519" y="1300" as="sourcePoint" />
            <mxPoint x="2754" y="1300" as="targetPoint" />
            <mxPoint as="offset" />
          </mxGeometry>
        </mxCell>
        <mxCell id="oNtT0CXuPI2pcW7gDsYd-143" value="Solicita datos de entrega&amp;nbsp;" style="html=1;verticalAlign=bottom;endArrow=open;dashed=1;endSize=8;curved=0;rounded=0;" parent="1" edge="1">
          <mxGeometry x="0.0213" relative="1" as="geometry">
            <mxPoint x="2749" y="1340" as="sourcePoint" />
            <mxPoint x="2514" y="1340" as="targetPoint" />
            <mxPoint as="offset" />
          </mxGeometry>
        </mxCell>
        <mxCell id="oNtT0CXuPI2pcW7gDsYd-144" value="Ingreso de datos&amp;nbsp;" style="html=1;verticalAlign=bottom;endArrow=block;curved=0;rounded=0;" parent="1" source="oNtT0CXuPI2pcW7gDsYd-119" target="oNtT0CXuPI2pcW7gDsYd-120" edge="1">
          <mxGeometry width="80" relative="1" as="geometry">
            <mxPoint x="2529" y="1390" as="sourcePoint" />
            <mxPoint x="2744" y="1390" as="targetPoint" />
            <Array as="points">
              <mxPoint x="2624" y="1390" />
            </Array>
          </mxGeometry>
        </mxCell>
        <mxCell id="oNtT0CXuPI2pcW7gDsYd-147" value="Envió de datos&amp;nbsp;" style="html=1;verticalAlign=bottom;endArrow=block;curved=0;rounded=0;" parent="1" target="oNtT0CXuPI2pcW7gDsYd-117" edge="1">
          <mxGeometry width="80" relative="1" as="geometry">
            <mxPoint x="2759" y="1414.76" as="sourcePoint" />
            <mxPoint x="2999" y="1414.76" as="targetPoint" />
            <Array as="points">
              <mxPoint x="2874" y="1414.76" />
            </Array>
          </mxGeometry>
        </mxCell>
        <mxCell id="oNtT0CXuPI2pcW7gDsYd-149" value="Verificación de datos&amp;nbsp;" style="html=1;align=left;spacingLeft=2;endArrow=block;rounded=0;edgeStyle=orthogonalEdgeStyle;curved=0;rounded=0;" parent="1" edge="1">
          <mxGeometry relative="1" as="geometry">
            <mxPoint x="3029" y="1440" as="sourcePoint" />
            <Array as="points">
              <mxPoint x="3059" y="1470" />
            </Array>
            <mxPoint x="3034" y="1470.0000000000005" as="targetPoint" />
          </mxGeometry>
        </mxCell>
        <mxCell id="oNtT0CXuPI2pcW7gDsYd-150" value="Guardar datos" style="html=1;verticalAlign=bottom;endArrow=block;curved=0;rounded=0;" parent="1" source="oNtT0CXuPI2pcW7gDsYd-121" target="oNtT0CXuPI2pcW7gDsYd-151" edge="1">
          <mxGeometry width="80" relative="1" as="geometry">
            <mxPoint x="3039" y="1510" as="sourcePoint" />
            <mxPoint x="3119" y="1510" as="targetPoint" />
          </mxGeometry>
        </mxCell>
        <mxCell id="oNtT0CXuPI2pcW7gDsYd-152" value="Descargable baucher" style="html=1;verticalAlign=bottom;endArrow=open;dashed=1;endSize=8;curved=0;rounded=0;entryX=1;entryY=1;entryDx=0;entryDy=-5;entryPerimeter=0;" parent="1" source="oNtT0CXuPI2pcW7gDsYd-120" target="oNtT0CXuPI2pcW7gDsYd-119" edge="1">
          <mxGeometry relative="1" as="geometry">
            <mxPoint x="2739" y="1673" as="sourcePoint" />
            <mxPoint x="2659" y="1673" as="targetPoint" />
          </mxGeometry>
        </mxCell>
        <mxCell id="oNtT0CXuPI2pcW7gDsYd-153" value="Generar baucher" style="html=1;verticalAlign=bottom;endArrow=open;dashed=1;endSize=8;curved=0;rounded=0;" parent="1" edge="1">
          <mxGeometry relative="1" as="geometry">
            <mxPoint x="3024" y="1630" as="sourcePoint" />
            <mxPoint x="2759" y="1630" as="targetPoint" />
          </mxGeometry>
        </mxCell>
        <mxCell id="oNtT0CXuPI2pcW7gDsYd-154" value="Datos guardaos&amp;nbsp;" style="html=1;verticalAlign=bottom;endArrow=open;dashed=1;endSize=8;curved=0;rounded=0;" parent="1" edge="1">
          <mxGeometry relative="1" as="geometry">
            <mxPoint x="3264" y="1590" as="sourcePoint" />
            <mxPoint x="3039" y="1590" as="targetPoint" />
          </mxGeometry>
        </mxCell>
        <mxCell id="oNtT0CXuPI2pcW7gDsYd-157" value="Realizar pedido&amp;nbsp;" style="shape=umlFrame;whiteSpace=wrap;html=1;pointerEvents=0;width=129;height=30;" parent="1" vertex="1">
          <mxGeometry x="2330" y="550" width="1089" height="1210" as="geometry" />
        </mxCell>
        <mxCell id="-nIuG26zyEN4biMqjKfC-1" value="Base de datos" style="text;html=1;strokeColor=none;fillColor=none;align=center;verticalAlign=middle;whiteSpace=wrap;rounded=0;" parent="1" vertex="1">
          <mxGeometry x="3248" y="569" width="60" height="30" as="geometry" />
        </mxCell>
        <mxCell id="-nIuG26zyEN4biMqjKfC-2" value="Controlador" style="text;html=1;strokeColor=none;fillColor=none;align=center;verticalAlign=middle;whiteSpace=wrap;rounded=0;" parent="1" vertex="1">
          <mxGeometry x="2999" y="569" width="60" height="30" as="geometry" />
        </mxCell>
        <mxCell id="-nIuG26zyEN4biMqjKfC-3" value="Interfaz&lt;br&gt;" style="text;html=1;align=center;verticalAlign=middle;resizable=0;points=[];autosize=1;strokeColor=none;fillColor=none;" parent="1" vertex="1">
          <mxGeometry x="2729" y="569" width="60" height="30" as="geometry" />
        </mxCell>
        <mxCell id="-nIuG26zyEN4biMqjKfC-4" value="Cliente" style="text;strokeColor=none;align=center;fillColor=none;html=1;verticalAlign=middle;whiteSpace=wrap;rounded=0;" parent="1" vertex="1">
          <mxGeometry x="2486.5" y="570" width="60" height="30" as="geometry" />
        </mxCell>
      </root>
    </mxGraphModel>
  </diagram>
  <diagram id="rx2fSxx9B7T89DJpczaf" name="MER">
    <mxGraphModel dx="1627" dy="818" grid="1" gridSize="10" guides="1" tooltips="1" connect="1" arrows="1" fold="1" page="1" pageScale="1" pageWidth="827" pageHeight="1169" math="0" shadow="0">
      <root>
        <mxCell id="0" />
        <mxCell id="1" parent="0" />
        <mxCell id="UUPkcLnuBKiJJMjdM7nL-1" value="USUARIO" style="rounded=0;whiteSpace=wrap;html=1;" parent="1" vertex="1">
          <mxGeometry x="70" y="310" width="120" height="60" as="geometry" />
        </mxCell>
        <mxCell id="UUPkcLnuBKiJJMjdM7nL-2" value="PEDIDO" style="whiteSpace=wrap;html=1;aspect=fixed;" parent="1" vertex="1">
          <mxGeometry x="510" y="300" width="80" height="80" as="geometry" />
        </mxCell>
        <mxCell id="UUPkcLnuBKiJJMjdM7nL-3" value="PRODUCTOS" style="whiteSpace=wrap;html=1;aspect=fixed;" parent="1" vertex="1">
          <mxGeometry x="910" y="300" width="80" height="80" as="geometry" />
        </mxCell>
        <mxCell id="UUPkcLnuBKiJJMjdM7nL-4" value="INVENTARIO" style="whiteSpace=wrap;html=1;aspect=fixed;" parent="1" vertex="1">
          <mxGeometry x="1220" y="125" width="90" height="90" as="geometry" />
        </mxCell>
        <mxCell id="S22ILxoVflo05nIUyhA_-1" value="REALIZA" style="rhombus;whiteSpace=wrap;html=1;" vertex="1" parent="1">
          <mxGeometry x="310" y="300" width="80" height="80" as="geometry" />
        </mxCell>
        <mxCell id="S22ILxoVflo05nIUyhA_-3" value="" style="endArrow=none;html=1;rounded=0;exitX=1;exitY=0.5;exitDx=0;exitDy=0;" edge="1" parent="1" source="S22ILxoVflo05nIUyhA_-1" target="UUPkcLnuBKiJJMjdM7nL-2">
          <mxGeometry width="50" height="50" relative="1" as="geometry">
            <mxPoint x="400" y="290" as="sourcePoint" />
            <mxPoint x="480" y="290" as="targetPoint" />
          </mxGeometry>
        </mxCell>
        <mxCell id="S22ILxoVflo05nIUyhA_-5" value="" style="endArrow=none;html=1;rounded=0;exitX=1;exitY=0.5;exitDx=0;exitDy=0;entryX=0;entryY=0.5;entryDx=0;entryDy=0;" edge="1" parent="1" source="UUPkcLnuBKiJJMjdM7nL-1" target="S22ILxoVflo05nIUyhA_-1">
          <mxGeometry relative="1" as="geometry">
            <mxPoint x="200" y="410" as="sourcePoint" />
            <mxPoint x="360" y="410" as="targetPoint" />
          </mxGeometry>
        </mxCell>
        <mxCell id="S22ILxoVflo05nIUyhA_-6" value="1..n" style="resizable=0;html=1;whiteSpace=wrap;align=left;verticalAlign=bottom;" connectable="0" vertex="1" parent="S22ILxoVflo05nIUyhA_-5">
          <mxGeometry x="-1" relative="1" as="geometry" />
        </mxCell>
        <mxCell id="S22ILxoVflo05nIUyhA_-9" value="1..n" style="resizable=0;html=1;whiteSpace=wrap;align=left;verticalAlign=bottom;" connectable="0" vertex="1" parent="1">
          <mxGeometry x="480" y="340" as="geometry" />
        </mxCell>
        <mxCell id="S22ILxoVflo05nIUyhA_-10" value="" style="endArrow=none;html=1;rounded=0;entryX=1;entryY=0.5;entryDx=0;entryDy=0;exitX=0;exitY=0.5;exitDx=0;exitDy=0;" edge="1" parent="1" source="S22ILxoVflo05nIUyhA_-18" target="UUPkcLnuBKiJJMjdM7nL-2">
          <mxGeometry relative="1" as="geometry">
            <mxPoint x="550" y="240" as="sourcePoint" />
            <mxPoint x="630" y="170" as="targetPoint" />
          </mxGeometry>
        </mxCell>
        <mxCell id="S22ILxoVflo05nIUyhA_-11" value="1..n" style="resizable=0;html=1;whiteSpace=wrap;align=left;verticalAlign=bottom;" connectable="0" vertex="1" parent="S22ILxoVflo05nIUyhA_-10">
          <mxGeometry x="-1" relative="1" as="geometry">
            <mxPoint y="20" as="offset" />
          </mxGeometry>
        </mxCell>
        <mxCell id="S22ILxoVflo05nIUyhA_-13" value="ESTÁ EN" style="rhombus;whiteSpace=wrap;html=1;" vertex="1" parent="1">
          <mxGeometry x="910" y="130" width="80" height="80" as="geometry" />
        </mxCell>
        <mxCell id="S22ILxoVflo05nIUyhA_-14" value="" style="endArrow=none;html=1;rounded=0;exitX=0;exitY=0.5;exitDx=0;exitDy=0;entryX=1;entryY=0.5;entryDx=0;entryDy=0;" edge="1" parent="1" source="UUPkcLnuBKiJJMjdM7nL-4" target="S22ILxoVflo05nIUyhA_-13">
          <mxGeometry relative="1" as="geometry">
            <mxPoint x="200" y="290" as="sourcePoint" />
            <mxPoint x="870" y="250" as="targetPoint" />
          </mxGeometry>
        </mxCell>
        <mxCell id="S22ILxoVflo05nIUyhA_-15" value="1..n" style="resizable=0;html=1;whiteSpace=wrap;align=left;verticalAlign=bottom;" connectable="0" vertex="1" parent="S22ILxoVflo05nIUyhA_-14">
          <mxGeometry x="-1" relative="1" as="geometry">
            <mxPoint x="-30" as="offset" />
          </mxGeometry>
        </mxCell>
        <mxCell id="S22ILxoVflo05nIUyhA_-16" value="" style="endArrow=none;html=1;rounded=0;exitX=0.5;exitY=1;exitDx=0;exitDy=0;entryX=0.5;entryY=0;entryDx=0;entryDy=0;" edge="1" parent="1" source="S22ILxoVflo05nIUyhA_-13" target="UUPkcLnuBKiJJMjdM7nL-3">
          <mxGeometry relative="1" as="geometry">
            <mxPoint x="210" y="300" as="sourcePoint" />
            <mxPoint x="330" y="300" as="targetPoint" />
          </mxGeometry>
        </mxCell>
        <mxCell id="S22ILxoVflo05nIUyhA_-17" value="1..n" style="resizable=0;html=1;whiteSpace=wrap;align=left;verticalAlign=bottom;" connectable="0" vertex="1" parent="S22ILxoVflo05nIUyhA_-16">
          <mxGeometry x="-1" relative="1" as="geometry">
            <mxPoint y="20" as="offset" />
          </mxGeometry>
        </mxCell>
        <mxCell id="S22ILxoVflo05nIUyhA_-18" value="TIENE" style="rhombus;whiteSpace=wrap;html=1;" vertex="1" parent="1">
          <mxGeometry x="710" y="300" width="80" height="80" as="geometry" />
        </mxCell>
        <mxCell id="S22ILxoVflo05nIUyhA_-19" value="" style="endArrow=none;html=1;rounded=0;exitX=0;exitY=0.5;exitDx=0;exitDy=0;entryX=1;entryY=0.5;entryDx=0;entryDy=0;" edge="1" parent="1" source="UUPkcLnuBKiJJMjdM7nL-3" target="S22ILxoVflo05nIUyhA_-18">
          <mxGeometry width="50" height="50" relative="1" as="geometry">
            <mxPoint x="400" y="350" as="sourcePoint" />
            <mxPoint x="520" y="350" as="targetPoint" />
          </mxGeometry>
        </mxCell>
        <mxCell id="S22ILxoVflo05nIUyhA_-20" value="SUPERVISOR" style="rounded=0;whiteSpace=wrap;html=1;" vertex="1" parent="1">
          <mxGeometry x="80" y="605" width="120" height="60" as="geometry" />
        </mxCell>
        <mxCell id="G7phHeY2LV547EQyJyJW-1" value="GENERA&amp;nbsp;" style="rhombus;whiteSpace=wrap;html=1;" vertex="1" parent="1">
          <mxGeometry x="310" y="595" width="80" height="80" as="geometry" />
        </mxCell>
        <mxCell id="G7phHeY2LV547EQyJyJW-2" value="INFORME" style="rounded=0;whiteSpace=wrap;html=1;" vertex="1" parent="1">
          <mxGeometry x="490" y="605" width="120" height="60" as="geometry" />
        </mxCell>
        <mxCell id="G7phHeY2LV547EQyJyJW-3" value="REPORTA" style="rhombus;whiteSpace=wrap;html=1;" vertex="1" parent="1">
          <mxGeometry x="510" y="450" width="80" height="80" as="geometry" />
        </mxCell>
        <mxCell id="G7phHeY2LV547EQyJyJW-4" value="" style="endArrow=none;html=1;rounded=0;exitX=1;exitY=0.5;exitDx=0;exitDy=0;entryX=0;entryY=0.5;entryDx=0;entryDy=0;" edge="1" parent="1" source="S22ILxoVflo05nIUyhA_-20" target="G7phHeY2LV547EQyJyJW-1">
          <mxGeometry relative="1" as="geometry">
            <mxPoint x="214" y="520" as="sourcePoint" />
            <mxPoint x="334" y="520" as="targetPoint" />
          </mxGeometry>
        </mxCell>
        <mxCell id="G7phHeY2LV547EQyJyJW-5" value="1..n" style="resizable=0;html=1;whiteSpace=wrap;align=left;verticalAlign=bottom;" connectable="0" vertex="1" parent="G7phHeY2LV547EQyJyJW-4">
          <mxGeometry x="-1" relative="1" as="geometry" />
        </mxCell>
        <mxCell id="G7phHeY2LV547EQyJyJW-6" value="" style="endArrow=none;html=1;rounded=0;exitX=0.5;exitY=1;exitDx=0;exitDy=0;entryX=0.5;entryY=0;entryDx=0;entryDy=0;" edge="1" parent="1" source="UUPkcLnuBKiJJMjdM7nL-2" target="G7phHeY2LV547EQyJyJW-3">
          <mxGeometry relative="1" as="geometry">
            <mxPoint x="370" y="489.58000000000004" as="sourcePoint" />
            <mxPoint x="490" y="489.58000000000004" as="targetPoint" />
          </mxGeometry>
        </mxCell>
        <mxCell id="G7phHeY2LV547EQyJyJW-7" value="1..n" style="resizable=0;html=1;whiteSpace=wrap;align=left;verticalAlign=bottom;" connectable="0" vertex="1" parent="G7phHeY2LV547EQyJyJW-6">
          <mxGeometry x="-1" relative="1" as="geometry">
            <mxPoint y="20" as="offset" />
          </mxGeometry>
        </mxCell>
        <mxCell id="G7phHeY2LV547EQyJyJW-8" value="" style="endArrow=none;html=1;rounded=0;exitX=1;exitY=0.5;exitDx=0;exitDy=0;entryX=0;entryY=0.5;entryDx=0;entryDy=0;" edge="1" parent="1" source="G7phHeY2LV547EQyJyJW-1" target="G7phHeY2LV547EQyJyJW-2">
          <mxGeometry relative="1" as="geometry">
            <mxPoint x="210" y="645" as="sourcePoint" />
            <mxPoint x="320" y="645" as="targetPoint" />
          </mxGeometry>
        </mxCell>
        <mxCell id="G7phHeY2LV547EQyJyJW-9" value="1..n" style="resizable=0;html=1;whiteSpace=wrap;align=left;verticalAlign=bottom;" connectable="0" vertex="1" parent="G7phHeY2LV547EQyJyJW-8">
          <mxGeometry x="-1" relative="1" as="geometry" />
        </mxCell>
        <mxCell id="G7phHeY2LV547EQyJyJW-10" value="" style="endArrow=none;html=1;rounded=0;exitX=0.5;exitY=1;exitDx=0;exitDy=0;" edge="1" parent="1" source="G7phHeY2LV547EQyJyJW-3" target="G7phHeY2LV547EQyJyJW-2">
          <mxGeometry relative="1" as="geometry">
            <mxPoint x="220" y="655" as="sourcePoint" />
            <mxPoint x="330" y="655" as="targetPoint" />
          </mxGeometry>
        </mxCell>
        <mxCell id="G7phHeY2LV547EQyJyJW-11" value="1..n" style="resizable=0;html=1;whiteSpace=wrap;align=left;verticalAlign=bottom;" connectable="0" vertex="1" parent="G7phHeY2LV547EQyJyJW-10">
          <mxGeometry x="-1" relative="1" as="geometry">
            <mxPoint y="20" as="offset" />
          </mxGeometry>
        </mxCell>
        <mxCell id="G7phHeY2LV547EQyJyJW-16" value="ADMINISTRADOR" style="rounded=0;whiteSpace=wrap;html=1;" vertex="1" parent="1">
          <mxGeometry x="1205" y="470" width="120" height="60" as="geometry" />
        </mxCell>
        <mxCell id="G7phHeY2LV547EQyJyJW-17" value="ADMINISTRA" style="rhombus;whiteSpace=wrap;html=1;" vertex="1" parent="1">
          <mxGeometry x="1225" y="310" width="80" height="80" as="geometry" />
        </mxCell>
        <mxCell id="G7phHeY2LV547EQyJyJW-18" value="" style="endArrow=none;html=1;rounded=0;exitX=0.5;exitY=0;exitDx=0;exitDy=0;entryX=0.5;entryY=1;entryDx=0;entryDy=0;" edge="1" parent="1" source="G7phHeY2LV547EQyJyJW-16" target="G7phHeY2LV547EQyJyJW-17">
          <mxGeometry width="50" height="50" relative="1" as="geometry">
            <mxPoint x="920" y="350" as="sourcePoint" />
            <mxPoint x="800" y="350" as="targetPoint" />
          </mxGeometry>
        </mxCell>
        <mxCell id="G7phHeY2LV547EQyJyJW-19" value="" style="endArrow=none;html=1;rounded=0;exitX=0.5;exitY=0;exitDx=0;exitDy=0;entryX=0.5;entryY=1;entryDx=0;entryDy=0;" edge="1" parent="1" source="G7phHeY2LV547EQyJyJW-17" target="UUPkcLnuBKiJJMjdM7nL-4">
          <mxGeometry width="50" height="50" relative="1" as="geometry">
            <mxPoint x="1140" y="420" as="sourcePoint" />
            <mxPoint x="1020" y="420" as="targetPoint" />
          </mxGeometry>
        </mxCell>
      </root>
    </mxGraphModel>
  </diagram>
</mxfile>
